<?xml version="1.0" standalone="no"?>
<!DOCTYPE svg PUBLIC "-//W3C//DTD SVG 20010904//EN"
 "http://www.w3.org/TR/2001/REC-SVG-20010904/DTD/svg10.dtd">
<svg version="1.0" xmlns="http://www.w3.org/2000/svg"
 width="512.000000pt" height="512.000000pt" viewBox="0 0 512.000000 512.000000"
 preserveAspectRatio="xMidYMid meet">
<metadata>
Created by potrace 1.14, written by Peter Selinger 2001-2017
</metadata>
<g transform="translate(0.000000,512.000000) scale(0.100000,-0.100000)"
fill="#000000" stroke="none">
<path d="M2236 5104 c-347 -46 -718 -177 -1016 -358 -334 -204 -662 -535 -860
-868 -166 -279 -283 -604 -335 -928 -26 -160 -31 -521 -11 -690 44 -362 172
-731 360 -1040 204 -334 535 -662 868 -860 279 -166 604 -283 928 -335 160
-26 521 -31 690 -11 362 44 731 172 1040 360 334 204 662 535 860 868 166 279
283 604 335 928 26 160 31 521 11 690 -44 362 -172 731 -360 1040 -204 334
-535 662 -868 860 -279 166 -603 283 -928 335 -146 24 -565 29 -714 9z m614
-600 c236 -35 474 -117 679 -234 822 -470 1197 -1441 900 -2332 -297 -894
-1191 -1455 -2123 -1333 -744 98 -1374 616 -1610 1326 -241 723 -57 1493 486
2029 437 433 1053 634 1668 544z"/>
<path d="M2360 4439 c-486 -51 -959 -309 -1266 -689 -270 -335 -407 -704 -421
-1135 -16 -513 165 -988 517 -1359 274 -288 617 -476 1019 -557 150 -31 452
-38 610 -15 324 48 622 171 879 362 103 77 305 279 382 384 199 271 319 573
361 913 15 122 7 420 -14 532 -99 527 -382 963 -812 1250 -374 250 -817 361
-1255 314z m153 -750 c4 -16 -1 -24 -29 -35 -53 -22 -78 -22 -82 1 -2 15 7 24
35 37 52 22 70 22 76 -3z m940 -40 c91 -42 51 -227 -143 -655 -40 -88 -73
-161 -75 -162 -2 -2 -17 6 -33 18 -28 21 -29 24 -25 88 4 58 2 71 -19 101 -32
47 -66 71 -113 77 -66 9 -68 11 -49 39 23 34 75 33 148 -3 43 -22 56 -25 56
-14 0 16 -63 82 -95 99 -19 11 -19 11 0 48 31 57 38 60 108 47 34 -7 72 -15
85 -18 15 -4 22 -2 22 8 0 25 -53 66 -102 79 -27 7 -48 16 -48 19 0 3 12 18
26 34 24 27 28 28 85 23 32 -4 59 -3 59 1 0 16 -41 52 -65 58 -25 6 -25 6 -7
36 38 66 128 103 185 77z m-844 -88 c23 -6 41 -16 41 -21 0 -14 -121 -69 -168
-76 l-42 -7 16 38 c9 21 13 49 9 65 -5 25 -2 29 32 42 35 15 38 14 54 -6 10
-13 36 -28 58 -35z m-601 -8 c20 -27 14 -38 -20 -38 l-33 0 3 -51 c2 -29 -1
-55 -6 -58 -12 -7 -72 84 -72 110 0 10 5 36 10 56 l11 37 47 -20 c26 -11 53
-27 60 -36z m734 -106 l36 -53 -33 -21 c-20 -13 -44 -44 -60 -77 -15 -30 -36
-58 -46 -61 -10 -3 -27 -7 -38 -10 -14 -4 -22 2 -31 25 -16 39 -61 76 -102 85
-35 8 -48 20 -48 46 0 12 13 18 48 22 72 10 112 24 172 61 30 19 57 34 60 35
3 0 21 -23 42 -52z m-674 -10 c12 -11 22 -30 22 -42 0 -20 -52 -109 -70 -120
-9 -6 -60 66 -60 86 0 7 9 29 20 47 11 18 20 42 20 53 0 17 3 18 23 8 12 -6
32 -21 45 -32z m911 -63 c22 -9 52 -31 66 -51 l27 -34 -59 -54 c-33 -29 -70
-74 -84 -99 -13 -25 -26 -46 -29 -45 -3 0 -18 21 -35 47 -37 57 -87 92 -131
92 -38 0 -40 6 -20 53 38 89 163 132 265 91z m-740 -61 c-28 -78 -79 -119 -79
-65 0 9 -4 24 -10 32 -7 12 -16 7 -45 -23 -33 -34 -65 -48 -65 -29 0 13 59
110 72 118 14 9 77 21 120 23 l28 1 -21 -57z m-328 -8 c70 -19 89 -42 89 -111
0 -54 0 -54 -22 -40 -13 8 -41 17 -63 21 -63 10 -91 24 -104 51 -14 31 -14 39
0 87 10 37 11 38 29 22 10 -9 42 -23 71 -30z m514 14 c51 -14 91 -43 110 -78
l14 -28 -37 13 c-67 23 -134 -10 -153 -77 -9 -30 -16 -38 -28 -34 -9 4 -31 9
-48 12 -29 5 -33 10 -33 35 0 21 9 38 30 56 31 27 39 59 19 79 -9 9 -3 14 22
21 46 14 58 14 104 1z m-634 -108 l15 -49 -33 5 -33 6 0 -47 0 -46 -44 0 c-45
0 -66 12 -45 26 6 3 22 32 36 63 47 106 80 120 104 42z m372 -48 l35 -52 -38
-30 c-21 -17 -44 -47 -51 -66 -15 -41 -19 -42 -47 -12 -24 25 -42 68 -42 99 0
19 96 125 105 116 2 -1 19 -26 38 -55z m382 6 l35 -31 34 21 c89 55 216 -8
216 -106 0 -28 -4 -33 -24 -33 -39 0 -90 -42 -106 -88 l-15 -43 -129 3 -130 3
-15 47 c-14 48 -14 48 16 86 l31 39 -29 17 c-45 27 -37 79 15 102 46 20 62 17
101 -17z m-608 -69 c43 -19 67 -47 78 -92 9 -36 -2 -36 -63 2 -27 17 -55 30
-62 30 -20 0 27 -46 61 -60 39 -16 37 -25 -10 -38 -89 -27 -141 1 -141 75 0
18 -7 50 -15 70 -8 19 -15 37 -15 39 0 10 130 -11 167 -26z m411 -72 c-3 -35
-13 -80 -21 -100 -15 -35 -19 -38 -56 -38 -23 0 -41 2 -41 5 0 3 9 24 20 45
11 22 16 40 11 40 -14 0 -61 -59 -61 -77 0 -48 -47 32 -49 83 -2 38 36 74 77
75 20 0 53 7 72 14 19 7 39 14 44 14 5 1 6 -27 4 -61z m706 18 c46 -19 66 -52
66 -106 l0 -45 -191 -3 -192 -4 7 33 c10 54 37 74 96 71 41 -2 51 2 60 19 13
23 63 48 98 49 12 0 38 -6 56 -14z m-939 -107 c6 -9 -36 -79 -47 -79 -5 0 -8
11 -8 24 0 23 -2 23 -42 15 -31 -7 -43 -7 -49 3 -7 11 2 19 71 57 16 9 66 -5
75 -20z m-211 -61 c-4 -13 -26 -45 -51 -72 -24 -26 -46 -59 -49 -72 -5 -20
-40 -43 -48 -32 -2 1 0 34 4 73 6 55 13 73 31 88 24 19 24 19 27 -4 6 -42 20
-42 47 0 30 45 51 54 39 19z m144 -839 c43 -129 133 -235 256 -300 80 -43 146
-59 247 -59 230 0 429 143 501 359 21 62 22 87 26 444 l4 378 21 -6 c51 -15
113 -63 142 -109 l30 -49 0 -561 c0 -559 0 -561 -22 -602 -25 -47 -73 -91
-120 -111 -26 -10 -144 -13 -585 -13 -537 0 -553 1 -594 21 -58 28 -100 78
-119 143 -14 46 -15 127 -13 582 l3 529 24 48 c26 53 71 93 128 112 l38 13 6
-376 c5 -353 6 -381 27 -443z m880 444 l-3 -378 -27 -58 c-32 -69 -115 -154
-179 -185 -190 -92 -418 -13 -511 176 l-33 67 -3 377 -3 378 381 0 381 0 -3
-377z"/>
<path d="M2890 3328 c0 -13 38 -28 54 -22 27 10 18 22 -19 26 -19 2 -35 1 -35
-4z"/>
</g>
</svg>
