<?xml version="1.0" standalone="no"?>
<!DOCTYPE svg PUBLIC "-//W3C//DTD SVG 20010904//EN"
 "http://www.w3.org/TR/2001/REC-SVG-20010904/DTD/svg10.dtd">
<svg version="1.0" xmlns="http://www.w3.org/2000/svg"
 width="1024.000000pt" height="1024.000000pt" viewBox="0 0 1024.000000 1024.000000"
 preserveAspectRatio="xMidYMid meet">
<metadata>
Created by potrace 1.14, written by Peter Selinger 2001-2017
</metadata>
<g transform="translate(0.000000,1024.000000) scale(0.100000,-0.100000)"
fill="#000000" stroke="none">
<path d="M0 5120 l0 -5120 5120 0 5120 0 0 5120 0 5120 -5120 0 -5120 0 0
-5120z m5590 3916 c455 -60 845 -174 1234 -360 796 -380 1456 -1034 1846
-1831 200 -408 318 -809 377 -1283 24 -193 24 -701 0 -894 -116 -930 -503
-1719 -1159 -2364 -248 -245 -466 -414 -760 -590 -261 -156 -656 -325 -935
-400 -29 -8 -79 -21 -110 -29 -160 -43 -430 -87 -643 -106 -276 -24 -824 3
-1033 51 -23 5 -87 19 -142 31 -279 59 -578 162 -850 293 -1043 500 -1828
1452 -2116 2566 -89 343 -123 616 -123 995 0 261 8 380 40 589 122 809 494
1560 1067 2152 682 706 1572 1122 2562 1198 118 9 635 -3 745 -18z"/>
<path d="M4950 8884 c-751 -32 -1489 -300 -2100 -760 -161 -122 -208 -162
-364 -314 -543 -527 -902 -1183 -1065 -1945 -84 -393 -94 -933 -26 -1355 71
-436 224 -869 443 -1255 71 -126 222 -349 324 -480 183 -236 519 -552 798
-752 265 -189 624 -371 960 -485 120 -41 386 -112 480 -128 30 -5 82 -14 115
-20 267 -46 748 -59 1018 -26 264 32 391 57 637 127 1264 358 2278 1399 2605
2672 226 884 135 1797 -260 2602 -97 197 -145 281 -267 461 -263 390 -610 738
-1003 1007 -169 115 -279 179 -480 277 -405 197 -820 314 -1270 359 -111 11
-429 20 -545 15z m69 -1467 c18 -23 25 -75 11 -92 -17 -21 -174 -69 -202 -62
-13 4 -29 20 -37 37 -11 27 -11 33 3 49 10 10 38 27 63 36 26 10 58 24 72 31
33 18 75 18 90 1z m1912 -120 c57 -37 79 -95 79 -207 0 -135 -40 -281 -168
-605 -80 -204 -294 -691 -358 -818 l-15 -27 -52 39 c-29 21 -62 44 -74 50 -21
11 -22 12 -6 54 9 24 16 76 16 122 1 67 -3 89 -24 135 -52 110 -142 170 -284
191 -44 6 -84 15 -89 20 -11 9 48 105 70 113 61 24 210 -10 308 -69 32 -19 60
-35 63 -35 2 0 -8 23 -24 51 -29 55 -74 95 -163 149 -30 18 -56 34 -58 35 -2
2 13 24 33 51 20 26 45 65 56 86 11 21 31 43 44 48 31 12 156 -2 263 -29 44
-12 83 -21 86 -21 13 0 -24 56 -60 92 -42 43 -119 75 -199 84 -30 4 -55 10
-55 14 0 4 24 39 53 76 l53 69 65 0 c35 0 90 -4 122 -8 l58 -9 -15 30 c-21 41
-61 71 -113 85 -31 8 -43 16 -43 29 0 26 41 87 86 129 79 73 139 97 240 98 58
1 77 -3 105 -22z m-3110 -71 c15 -13 52 -32 81 -41 89 -29 148 -87 148 -146 0
-20 -4 -21 -62 -18 l-63 4 4 -86 c4 -97 -2 -125 -29 -139 -16 -9 -27 3 -84 88
-78 114 -85 144 -57 226 12 33 21 76 21 98 0 21 3 38 6 38 3 0 19 -11 35 -24z
m1264 5 c10 -32 54 -69 103 -87 61 -21 132 -55 132 -63 0 -10 -122 -88 -170
-109 -79 -35 -274 -81 -287 -68 -4 3 7 32 24 64 41 78 46 105 28 148 -8 20
-15 41 -15 46 0 8 154 87 172 88 4 0 9 -9 13 -19z m403 -325 c39 -57 72 -108
72 -114 0 -5 -17 -21 -37 -34 -80 -54 -118 -105 -177 -241 -9 -20 -26 -41 -38
-46 -34 -14 -125 -41 -137 -41 -5 0 -22 27 -37 60 -42 94 -120 153 -243 184
-44 11 -46 12 -55 59 -11 63 -1 73 80 80 142 14 266 59 409 150 39 25 75 45
80 46 6 0 43 -46 83 -103z m-1418 34 c53 -27 109 -88 116 -127 10 -51 -9 -101
-68 -179 -29 -38 -60 -80 -69 -93 l-15 -24 -52 65 c-28 36 -56 78 -62 94 -16
41 -3 94 36 155 31 47 35 60 30 97 -6 42 -5 42 22 36 15 -4 43 -15 62 -24z
m1915 -189 c54 -27 75 -45 115 -99 27 -37 49 -74 50 -83 0 -9 -25 -33 -55 -54
-89 -61 -184 -170 -238 -273 -27 -51 -50 -92 -52 -92 -2 0 -27 39 -56 87 -91
150 -159 202 -279 212 l-65 6 -3 33 c-5 46 26 126 66 173 75 87 198 131 354
126 86 -3 105 -8 163 -36z m-1455 4 c0 -14 -74 -225 -90 -256 -20 -39 -63 -63
-102 -57 -20 3 -24 11 -33 60 -5 31 -13 59 -16 63 -4 3 -35 -23 -70 -59 -46
-45 -76 -68 -107 -77 -23 -7 -45 -9 -49 -6 -3 4 23 64 59 135 49 94 74 132 96
145 19 11 83 25 164 36 73 11 136 19 141 20 4 1 7 -1 7 -4z m-755 -120 c33 -9
77 -22 97 -28 92 -26 138 -80 138 -162 0 -27 -3 -81 -7 -118 l-6 -68 -21 19
c-34 31 -76 48 -151 61 -154 27 -203 58 -225 139 -13 49 0 137 35 240 3 8 18
-1 42 -26 28 -29 54 -44 98 -57z m1146 -11 c97 -46 155 -111 184 -202 l7 -23
-54 28 c-110 57 -239 29 -302 -67 -32 -48 -56 -152 -38 -158 7 -2 10 -7 7 -12
-3 -5 -10 -57 -16 -117 -12 -130 -40 -231 -75 -272 -25 -30 -28 -31 -108 -31
-46 0 -86 3 -89 6 -4 4 2 19 12 33 28 40 72 131 64 131 -19 0 -66 -56 -90
-107 -44 -91 -64 -84 -107 38 -32 91 -33 129 -5 179 29 51 83 80 149 80 32 0
88 12 146 32 l95 32 -43 22 c-24 13 -69 26 -101 30 -62 7 -77 21 -77 68 0 41
28 100 58 121 73 54 88 91 57 145 -22 39 -18 47 28 64 29 11 71 15 137 13 83
-2 103 -6 161 -33z m-1361 -104 c11 -11 20 -33 20 -50 0 -16 9 -53 20 -82 31
-82 31 -82 -67 -53 -33 11 -47 -25 -40 -107 l6 -68 -57 -1 c-185 -4 -255 10
-184 37 39 15 72 63 117 169 49 115 60 132 104 155 46 24 57 24 81 0z m716
-77 c11 -46 39 -95 88 -154 25 -31 46 -61 46 -66 0 -6 -23 -25 -50 -43 -70
-45 -112 -98 -144 -180 -15 -38 -30 -70 -33 -70 -2 0 -27 23 -53 51 -65 69
-94 129 -94 199 0 65 20 108 72 155 20 18 62 56 92 84 30 28 58 51 62 51 4 0
11 -12 14 -27z m733 -39 c18 -4 56 -28 86 -55 29 -27 57 -49 61 -49 5 0 42 17
83 37 101 52 166 52 273 1 109 -52 157 -123 158 -235 0 -56 -14 -73 -62 -73
-38 0 -122 -45 -152 -81 -32 -37 -45 -67 -55 -124 l-6 -40 -65 -6 c-36 -4
-156 -7 -267 -8 -200 -1 -203 -1 -217 22 -15 23 -66 169 -66 188 0 6 28 40 62
76 55 57 61 66 47 76 -9 7 -37 27 -63 44 -49 35 -53 48 -35 104 17 50 67 98
119 114 54 16 59 17 99 9z m-1339 -148 c178 -20 252 -50 317 -125 28 -33 63
-122 63 -161 0 -40 -28 -40 -85 -1 -61 41 -175 104 -180 99 -6 -5 54 -78 64
-78 5 0 39 -14 76 -31 83 -37 80 -43 -57 -89 -108 -36 -160 -37 -207 -3 -41
30 -71 99 -71 164 0 55 -7 81 -49 187 -14 36 -17 52 -8 52 6 0 68 -7 137 -14z
m2447 -156 c83 -36 143 -130 143 -225 0 -60 -18 -107 -39 -101 -64 20 -154 27
-201 17 -29 -6 -158 -11 -300 -11 -246 0 -250 0 -250 21 0 49 25 112 60 152
36 40 40 42 96 42 33 0 75 -4 95 -8 34 -8 37 -7 70 36 42 56 78 78 149 93 64
14 118 9 177 -16z m-1943 -179 c43 -17 81 -32 83 -35 7 -7 -91 -157 -118 -182
-19 -17 -19 -16 -19 39 0 32 -4 57 -9 57 -21 0 -158 -31 -184 -41 -37 -16 -42
-8 -15 26 21 27 21 28 3 41 -17 13 -15 15 21 29 72 29 126 60 138 78 14 21 7
22 100 -12z m-340 -120 c3 -5 -1 -22 -9 -37 -8 -16 -15 -36 -15 -46 0 -9 -19
-31 -42 -49 -55 -44 -121 -136 -149 -208 -23 -57 -24 -59 -67 -65 -25 -3 -53
-6 -64 -6 -18 0 -18 1 -1 26 12 18 19 58 23 128 5 66 13 115 25 140 20 41 66
76 103 76 20 0 22 -5 22 -52 l1 -53 32 36 c17 20 47 55 65 78 31 39 64 52 76
32z m229 -828 c3 -742 4 -760 25 -836 62 -222 179 -401 351 -537 139 -109 261
-171 416 -210 129 -33 351 -33 479 -1 100 26 205 67 286 113 208 117 389 327
460 534 56 159 53 123 59 934 l6 755 32 -3 c134 -13 282 -129 347 -272 46
-102 47 -123 44 -1215 -4 -1121 -1 -1064 -61 -1180 -54 -107 -141 -180 -267
-226 l-65 -24 -1075 0 -1075 0 -65 24 c-81 29 -159 81 -206 135 -49 55 -99
166 -113 247 -15 91 -15 2026 0 2118 24 142 118 280 235 343 45 25 138 56 171
57 9 1 13 -174 16 -756z m1806 50 c0 -441 -4 -729 -10 -763 -42 -223 -192
-424 -401 -538 -244 -132 -571 -109 -812 58 -99 68 -215 214 -263 332 -52 129
-53 145 -53 909 l0 709 770 0 769 0 0 -707z"/>
<path d="M5803 6644 c31 -26 78 -32 96 -10 9 11 7 12 -12 9 -12 -3 -43 2 -67
11 l-45 15 28 -25z"/>
</g>
</svg>
